<svg version="1.1" id="Layer_1" xmlns="http://www.w3.org/2000/svg" xmlns:xlink="http://www.w3.org/1999/xlink" x="0px" y="0px"
	 width="100%" viewBox="0 0 117 118" enable-background="new 0 0 117 118" xml:space="preserve">
<path fill="#79268D" opacity="1.000000" stroke="none" 
	d="
M1.000000,80.000000 
	C1.000000,70.312439 1.000000,60.624878 1.252008,50.828918 
	C2.042140,50.493099 2.580264,50.265675 3.360391,49.784996 
	C3.970084,48.424675 4.337773,47.317608 4.654597,46.141487 
	C4.603731,46.072433 4.736859,45.964260 5.087477,45.923260 
	C6.622434,45.249409 7.806773,44.616558 8.994276,43.994019 
	C8.997439,44.004333 8.980422,43.986935 9.364016,43.989403 
	C11.496162,43.322643 13.244716,42.653416 15.190554,41.772881 
	C16.398621,41.031303 17.409401,40.501026 18.760860,39.793533 
	C19.740820,39.196880 20.380100,38.777447 21.174881,38.095921 
	C26.336941,33.143867 30.279045,27.708378 31.703342,20.922697 
	C32.396763,17.619076 34.036053,15.725380 37.352554,14.783526 
	C38.173805,14.611175 38.700668,14.383010 39.180622,14.150532 
	C39.133713,14.146217 39.125095,14.240038 39.549728,14.198053 
	C48.321938,14.028788 56.669518,13.901508 65.352661,13.847118 
	C66.371613,13.982196 67.055000,14.044385 67.964615,14.326496 
	C68.793510,14.692538 69.396187,14.838657 70.239166,15.241966 
	C71.950470,17.000175 73.421455,18.501196 74.908234,20.292604 
	C75.238319,21.065969 75.552612,21.548946 75.826508,22.355000 
	C76.135475,23.455372 76.484840,24.232672 76.837799,25.327728 
	C77.471817,26.466677 78.102249,27.287867 78.731262,28.414356 
	C79.030487,29.208405 79.331139,29.697155 79.682854,30.467861 
	C80.043358,31.208702 80.352798,31.667585 80.775917,32.426640 
	C81.546234,33.239040 82.202881,33.751274 82.851318,34.202362 
	C82.843109,34.141216 82.720818,34.157642 82.843315,34.445114 
	C83.607491,35.224110 84.249168,35.715641 84.883194,36.167439 
	C84.875534,36.127708 84.796074,36.143036 84.930321,36.455746 
	C88.047012,38.471958 91.029449,40.175465 94.181114,41.975235 
	C94.350334,42.071499 94.738312,42.104359 94.983337,42.334846 
	C96.491005,42.971466 97.753639,43.377602 99.371994,43.871567 
	C103.864853,45.895538 104.244164,49.635014 104.302452,53.994003 
	C104.739647,58.576981 105.190964,62.687717 105.466713,67.129730 
	C104.853371,71.575470 104.415596,75.689949 103.857796,80.065956 
	C103.668915,80.891861 103.600052,81.456223 103.302231,82.343567 
	C102.108963,83.782097 101.317078,85.627907 100.154190,85.902481 
	C85.271278,89.416641 76.997017,99.052109 73.772781,114.119011 
	C69.160225,115.106773 64.344498,116.082939 59.569061,117.227264 
	C58.940533,117.377876 58.517960,118.387970 58.000000,119.000000 
	C55.299988,119.000000 52.599972,119.000000 49.542381,118.603912 
	C43.697239,116.725929 38.209675,115.244034 33.010143,113.839920 
	C30.008820,99.886024 23.014141,90.148193 8.935579,86.743996 
	C6.279479,86.101738 4.102935,84.970009 3.401570,81.896057 
	C3.224890,81.121704 1.833287,80.624542 1.000000,80.000000 
M9.470854,61.239075 
	C10.305675,61.145336 11.140496,61.051598 12.532009,60.464912 
	C34.437180,56.034145 47.849209,37.374466 48.711460,21.711248 
	C42.602814,20.361506 40.230236,21.477789 38.264950,27.057535 
	C34.002193,39.160152 24.692308,45.710716 13.400455,50.305222 
	C11.987148,50.880276 11.096546,52.739971 9.592114,54.575569 
	C9.396688,56.714828 9.201261,58.854084 9.000076,61.000000 
	C9.000076,61.000000 9.006078,60.994675 9.470854,61.239075 
M10.604368,68.900604 
	C10.070677,68.911743 9.536984,68.922890 8.825243,69.489464 
	C8.802030,69.682503 8.778817,69.875534 8.553586,70.706711 
	C8.992417,72.485397 9.431249,74.264091 10.300538,76.609848 
	C11.555791,77.747505 12.629778,79.484840 14.095036,79.927757 
	C25.585474,83.401077 33.377777,91.361626 37.643375,101.866714 
	C40.106312,107.932304 43.457359,109.283501 49.305634,109.367409 
	C48.786880,101.099380 45.258064,94.259087 40.855453,87.874023 
	C33.620472,77.381195 23.082874,71.932167 10.604368,68.900604 
M42.280281,52.762901 
	C36.912609,56.936047 31.544941,61.109196 25.832659,65.550262 
	C38.171196,71.334587 46.957649,80.718811 53.551514,93.681671 
	C59.686672,80.211357 69.311508,71.664734 81.852501,65.000092 
	C68.971596,58.441540 59.637005,49.642513 53.836552,37.312607 
	C49.973095,42.526855 46.369202,47.390785 42.280281,52.762901 
M73.298492,79.742630 
	C64.614143,87.679787 59.272144,97.315063 57.565086,109.190979 
	C63.678238,109.356583 67.180710,107.897118 69.292458,101.980942 
	C72.886909,91.910912 80.522820,84.967743 90.424217,80.863594 
	C96.926422,78.168419 97.980835,76.926849 98.009560,68.964752 
	C88.791588,69.941254 81.028580,73.883324 73.298492,79.742630 
M81.579903,56.062458 
	C86.615295,57.840385 91.650681,59.618313 96.859238,61.457382 
	C97.881180,53.315018 97.149506,52.287148 90.691551,49.467384 
	C80.024048,44.809578 72.316078,37.216854 68.382736,26.077175 
	C66.707825,21.333643 62.977306,19.950895 57.083839,22.662842 
	C59.186272,27.883924 60.335083,33.915062 63.670887,38.271633 
	C68.603622,44.713810 75.089966,49.966389 81.579903,56.062458 
z"/>
<path fill="#010002" opacity="1.000000" stroke="none" 
	d="
M78.732674,28.109056 
	C78.102249,27.287867 77.471817,26.466677 77.077164,25.221148 
	C77.221970,23.866295 77.131012,22.935780 76.860298,21.768684 
	C76.084511,21.022142 75.488472,20.512178 74.892441,20.002214 
	C73.421455,18.501196 71.950470,17.000175 70.252213,14.997602 
	C70.024940,14.496050 70.042900,14.006759 70.314087,13.807829 
	C73.117065,12.701304 75.596405,11.304849 78.195671,11.025869 
	C80.712303,10.755760 83.352325,11.635231 85.997879,12.382182 
	C86.099762,13.002408 86.141922,13.250239 86.250748,13.882647 
	C86.578880,16.831909 86.840340,19.396597 87.078873,22.164429 
	C87.441330,22.878763 87.826706,23.389950 88.479965,24.083099 
	C90.164223,25.860346 91.580605,27.455635 93.215973,29.213707 
	C93.751480,29.557499 94.068008,29.738506 94.675720,29.935089 
	C95.326347,30.089884 95.685791,30.229105 96.162231,30.497211 
	C96.446320,30.788443 96.631752,30.926105 96.892410,31.023647 
	C96.949318,31.008211 96.980186,31.122026 97.261993,31.250814 
	C98.140182,31.547361 98.736557,31.715122 99.729538,31.899773 
	C101.710815,31.852461 103.295502,31.788258 105.177887,31.850552 
	C107.244225,31.202404 109.012856,30.427759 110.780640,29.718187 
	C110.779793,29.783260 110.649643,29.781557 110.920166,29.635365 
	C111.732262,28.891195 112.273834,28.293217 112.812637,27.756161 
	C112.809868,27.817085 112.688019,27.811520 112.953583,27.658878 
	C113.747169,26.898331 114.275192,26.290426 114.796707,25.722565 
	C114.790199,25.762606 114.710114,25.749573 115.120850,25.787548 
	C116.354393,25.883682 117.177193,25.941841 118.000000,26.000000 
	C118.000000,56.911110 118.000000,87.822220 118.000000,119.000000 
	C98.313240,119.000000 78.625282,119.000000 58.468658,119.000000 
	C58.517960,118.387970 58.940533,117.377876 59.569061,117.227264 
	C64.344498,116.082939 69.160225,115.106773 73.772781,114.119011 
	C76.997017,99.052109 85.271278,89.416641 100.154190,85.902481 
	C101.317078,85.627907 102.108963,83.782097 103.561844,82.216385 
	C104.650909,81.030449 105.251411,80.294693 105.792511,79.125137 
	C105.948273,75.068031 106.163422,71.444725 106.488037,67.598022 
	C106.712936,67.058128 106.828369,66.741623 106.837280,66.133286 
	C106.756516,65.226593 106.782280,64.611725 107.020981,63.832321 
	C106.867294,62.440899 106.500679,61.214012 106.048897,59.598213 
	C105.414688,57.313450 104.865631,55.417606 104.316574,53.521763 
	C104.244164,49.635014 103.864853,45.895538 99.128204,43.642628 
	C97.265228,42.918690 96.001770,42.511524 94.738312,42.104359 
	C94.738312,42.104359 94.350334,42.071499 94.000916,41.700409 
	C90.699692,39.600559 87.747879,37.871796 84.796074,36.143036 
	C84.796074,36.143036 84.875534,36.127708 84.722549,35.908958 
	C83.953308,35.179356 83.337067,34.668499 82.720818,34.157642 
	C82.720818,34.157642 82.843109,34.141216 82.684464,33.937592 
	C81.904633,33.198135 81.283432,32.662304 80.662239,32.126469 
	C80.352798,31.667585 80.043358,31.208702 79.724907,30.264242 
	C79.388153,29.222128 79.060417,28.665592 78.732674,28.109056 
z"/>
<path fill="#010001" opacity="1.000000" stroke="none" 
	d="
M85.938148,12.009788 
	C83.352325,11.635231 80.712303,10.755760 78.195671,11.025869 
	C75.596405,11.304849 73.117065,12.701304 69.928650,13.812389 
	C68.760818,14.046110 68.249596,14.076341 67.738380,14.106573 
	C67.055000,14.044385 66.371613,13.982196 65.135414,13.590178 
	C57.796696,8.256200 45.706554,8.721469 39.125095,14.240038 
	C39.125095,14.240038 39.133713,14.146217 38.900219,14.189868 
	C38.130539,14.398251 37.594353,14.562983 37.058167,14.727715 
	C34.036053,15.725380 32.396763,17.619076 31.703342,20.922697 
	C30.279045,27.708378 26.336941,33.143867 20.794140,38.193359 
	C19.645325,39.025517 19.032755,39.498135 18.420183,39.970753 
	C17.409401,40.501026 16.398621,41.031303 14.826017,41.767860 
	C12.502937,42.645069 10.741679,43.316002 8.980422,43.986935 
	C8.980422,43.986935 8.997439,44.004333 8.618706,43.971779 
	C7.072268,44.614231 5.904563,45.289246 4.736858,45.964260 
	C4.736859,45.964260 4.603731,46.072433 4.396223,46.389282 
	C3.831938,47.816833 3.475162,48.927544 3.118387,50.038250 
	C2.580264,50.265675 2.042140,50.493099 1.252008,50.360260 
	C1.000000,33.717144 1.000000,17.434292 1.000000,1.000000 
	C31.687408,1.000000 62.375046,1.000000 93.786369,1.296225 
	C91.972778,5.058286 89.435509,8.524122 86.658119,11.990515 
	C86.418007,11.991072 85.938148,12.009788 85.938148,12.009788 
z"/>
<path fill="#010002" opacity="1.000000" stroke="none" 
	d="
M1.000000,80.468658 
	C1.833287,80.624542 3.224890,81.121704 3.401570,81.896057 
	C4.102935,84.970009 6.279479,86.101738 8.935579,86.743996 
	C23.014141,90.148193 30.008820,99.886024 33.010143,113.839920 
	C38.209675,115.244034 43.697239,116.725929 49.092400,118.603912 
	C33.080891,119.000000 17.161781,119.000000 1.000000,119.000000 
	C1.000000,106.313469 1.000000,93.625397 1.000000,80.468658 
z"/>
<path fill="#7A268E" opacity="1.000000" stroke="none" 
	d="
M86.898239,11.989958 
	C89.435509,8.524122 91.972778,5.058286 94.255028,1.296225 
	C99.022095,1.000000 104.044182,1.000000 109.221024,1.266864 
	C112.250519,5.022487 115.125259,8.511246 118.000000,12.000002 
	C118.000000,14.370558 118.000000,16.741116 117.704887,19.719975 
	C116.509888,22.135378 115.610001,23.942476 114.710114,25.749573 
	C114.710114,25.749573 114.790199,25.762606 114.508026,25.843437 
	C113.713249,26.553354 113.200638,27.182438 112.688019,27.811520 
	C112.688019,27.811520 112.809868,27.817085 112.522064,27.871941 
	C111.706062,28.545052 111.177856,29.163305 110.649643,29.781559 
	C110.649643,29.781557 110.779793,29.783260 110.435165,29.811775 
	C108.353745,30.468212 106.616966,31.096134 104.880180,31.724056 
	C103.295502,31.788258 101.710815,31.852461 99.490204,31.683426 
	C98.229568,31.340799 97.604881,31.231413 96.980186,31.122028 
	C96.980186,31.122026 96.949318,31.008211 96.820435,30.852118 
	C96.530266,30.480070 96.314827,30.370838 96.045242,30.368328 
	C95.685791,30.229105 95.326347,30.089884 94.491333,29.719658 
	C93.676170,29.342745 93.336578,29.196835 92.996986,29.050924 
	C91.580605,27.455635 90.164223,25.860346 88.407593,23.807465 
	C87.745499,22.887007 87.423653,22.424145 87.101807,21.961285 
	C86.840340,19.396597 86.578880,16.831909 86.454193,13.675364 
	C86.693398,12.718991 86.795815,12.354475 86.898239,11.989958 
M103.176414,23.914427 
	C104.367599,23.347721 105.639442,22.904779 106.734703,22.190901 
	C109.909454,20.121616 110.495659,16.719683 109.061859,13.862628 
	C108.003830,11.754367 105.341087,9.699214 103.024414,9.134887 
	C98.510490,8.035326 94.854614,11.022470 94.437279,15.148351 
	C93.960106,19.865780 96.860138,23.078903 103.176414,23.914427 
z"/>
<path fill="#09040D" opacity="1.000000" stroke="none" 
	d="
M118.000000,11.517046 
	C115.125259,8.511246 112.250519,5.022487 109.687889,1.266864 
	C112.599510,1.000000 115.199013,1.000000 118.000000,1.000000 
	C118.000000,4.343195 118.000000,7.688642 118.000000,11.517046 
z"/>
<path fill="#07020B" opacity="1.000000" stroke="none" 
	d="
M115.120850,25.787548 
	C115.610001,23.942476 116.509888,22.135378 117.704887,20.164139 
	C118.000000,21.714186 118.000000,23.428373 118.000000,25.571280 
	C117.177193,25.941841 116.354393,25.883682 115.120850,25.787548 
z"/>
<path fill="#040106" opacity="1.000000" stroke="none" 
	d="
M42.522797,52.508812 
	C46.369202,47.390785 49.973095,42.526855 53.836552,37.312607 
	C59.637005,49.642513 68.971596,58.441540 81.852501,65.000092 
	C69.311508,71.664734 59.686672,80.211357 53.551514,93.681671 
	C46.957649,80.718811 38.171196,71.334587 25.832659,65.550262 
	C31.544941,61.109196 36.912609,56.936047 42.522797,52.508812 
z"/>
<path fill="#07030B" opacity="1.000000" stroke="none" 
	d="
M73.583084,79.532272 
	C81.028580,73.883324 88.791588,69.941254 98.009560,68.964752 
	C97.980835,76.926849 96.926422,78.168419 90.424217,80.863594 
	C80.522820,84.967743 72.886909,91.910912 69.292458,101.980942 
	C67.180710,107.897118 63.678238,109.356583 57.565086,109.190979 
	C59.272144,97.315063 64.614143,87.679787 73.583084,79.532272 
z"/>
<path fill="#08030C" opacity="1.000000" stroke="none" 
	d="
M8.755605,70.068558 
	C8.778817,69.875534 8.802030,69.682503 9.237119,69.261650 
	C10.083655,69.066811 10.518316,69.099785 10.952978,69.132767 
	C23.082874,71.932167 33.620472,77.381195 40.855453,87.874023 
	C45.258064,94.259087 48.786880,101.099380 49.305634,109.367409 
	C43.457359,109.283501 40.106312,107.932304 37.643375,101.866714 
	C33.377777,91.361626 25.585474,83.401077 14.095036,79.927757 
	C12.629778,79.484840 11.555791,77.747505 10.021708,75.941406 
	C9.413787,73.538162 9.084696,71.803360 8.755605,70.068558 
z"/>
<path fill="#09020C" opacity="1.000000" stroke="none" 
	d="
M81.247353,55.893974 
	C75.089966,49.966389 68.603622,44.713810 63.670887,38.271633 
	C60.335083,33.915062 59.186272,27.883924 57.083839,22.662842 
	C62.977306,19.950895 66.707825,21.333643 68.382736,26.077175 
	C72.316078,37.216854 80.024048,44.809578 90.691551,49.467384 
	C97.149506,52.287148 97.881180,53.315018 96.859238,61.457382 
	C91.650681,59.618313 86.615295,57.840385 81.247353,55.893974 
z"/>
<path fill="#08020B" opacity="1.000000" stroke="none" 
	d="
M9.963752,54.004433 
	C11.096546,52.739971 11.987148,50.880276 13.400455,50.305222 
	C24.692308,45.710716 34.002193,39.160152 38.264950,27.057535 
	C40.230236,21.477789 42.602814,20.361506 48.711460,21.711248 
	C47.849209,37.374466 34.437180,56.034145 11.883024,60.687668 
	C10.491385,60.938511 9.748732,60.966591 9.006078,60.994675 
	C9.006078,60.994675 9.000076,61.000000 9.109900,60.623756 
	C9.467733,58.166489 9.715742,56.085461 9.963752,54.004433 
z"/>
<path fill="#07020B" opacity="1.000000" stroke="none" 
	d="
M39.549728,14.198053 
	C45.706554,8.721469 57.796696,8.256200 64.799850,13.517288 
	C56.669518,13.901508 48.321938,14.028788 39.549728,14.198053 
z"/>
<path fill="#622773" opacity="1.000000" stroke="none" 
	d="
M106.378571,67.821411 
	C106.163422,71.444725 105.948273,75.068031 105.478043,79.152222 
	C104.807922,79.676872 104.392868,79.740646 103.977821,79.804428 
	C104.415596,75.689949 104.853371,71.575470 105.583374,67.196480 
	C105.875595,66.931961 106.106873,67.066902 106.172554,67.256332 
	C106.238235,67.445770 106.378571,67.821411 106.378571,67.821411 
z"/>
<path fill="#622773" opacity="1.000000" stroke="none" 
	d="
M106.808037,63.996861 
	C106.782280,64.611725 106.756516,65.226593 106.620537,66.285301 
	C106.375832,66.841736 106.241356,66.954315 106.106873,67.066902 
	C106.106873,67.066902 105.875595,66.931961 105.758942,66.865204 
	C105.190964,62.687717 104.739647,58.576981 104.302452,53.994003 
	C104.865631,55.417606 105.414688,57.313450 105.973122,59.940769 
	C106.257683,61.780449 106.532860,62.888657 106.808037,63.996861 
z"/>
<path fill="#07020B" opacity="1.000000" stroke="none" 
	d="
M84.930321,36.455746 
	C87.747879,37.871796 90.699692,39.600559 93.831696,41.604145 
	C91.029449,40.175465 88.047012,38.471958 84.930321,36.455746 
z"/>
<path fill="#6A257A" opacity="1.000000" stroke="none" 
	d="
M8.654595,70.387634 
	C9.084696,71.803360 9.413787,73.538162 9.806479,75.657867 
	C9.431249,74.264091 8.992417,72.485397 8.654595,70.387634 
z"/>
<path fill="#6A257A" opacity="1.000000" stroke="none" 
	d="
M9.777933,54.290001 
	C9.715742,56.085461 9.467733,58.166489 9.112780,60.620430 
	C9.201261,58.854084 9.396688,56.714828 9.777933,54.290001 
z"/>
<path fill="#010001" opacity="1.000000" stroke="none" 
	d="
M77.040054,22.005264 
	C77.131012,22.935780 77.221970,23.866295 77.073563,24.903389 
	C76.484840,24.232672 76.135475,23.455372 76.119850,22.350679 
	C76.649078,22.017279 76.844574,22.011271 77.040054,22.005264 
z"/>
<path fill="#722683" opacity="1.000000" stroke="none" 
	d="
M9.364016,43.989403 
	C10.741679,43.316002 12.502937,42.645069 14.628733,41.979164 
	C13.244716,42.653416 11.496162,43.322643 9.364016,43.989403 
z"/>
<path fill="#722683" opacity="1.000000" stroke="none" 
	d="
M5.087477,45.923260 
	C5.904563,45.289246 7.072268,44.614231 8.615541,43.961464 
	C7.806773,44.616558 6.622434,45.249409 5.087477,45.923260 
z"/>
<path fill="#07020B" opacity="1.000000" stroke="none" 
	d="
M103.857796,80.065964 
	C104.392868,79.740646 104.807922,79.676872 105.537445,79.586014 
	C105.251411,80.294693 104.650909,81.030449 103.790802,81.893402 
	C103.600052,81.456223 103.668915,80.891861 103.857796,80.065964 
z"/>
<path fill="#722683" opacity="1.000000" stroke="none" 
	d="
M3.360391,49.784996 
	C3.475162,48.927544 3.831938,47.816833 4.447088,46.458336 
	C4.337773,47.317608 3.970084,48.424675 3.360391,49.784996 
z"/>
<path fill="#07020B" opacity="1.000000" stroke="none" 
	d="
M94.983337,42.334846 
	C96.001770,42.511524 97.265228,42.918690 98.772476,43.554794 
	C97.753639,43.377602 96.491005,42.971466 94.983337,42.334846 
z"/>
<path fill="#07020B" opacity="1.000000" stroke="none" 
	d="
M78.731262,28.414356 
	C79.060417,28.665592 79.388153,29.222128 79.673843,29.982285 
	C79.331139,29.697155 79.030487,29.208405 78.731262,28.414356 
z"/>
<path fill="#07020B" opacity="1.000000" stroke="none" 
	d="
M76.860306,21.768684 
	C76.844574,22.011271 76.649078,22.017279 76.160248,22.027603 
	C75.552612,21.548946 75.238319,21.065969 74.908234,20.292603 
	C75.488472,20.512178 76.084511,21.022142 76.860306,21.768684 
z"/>
<path fill="#07020B" opacity="1.000000" stroke="none" 
	d="
M80.775917,32.426640 
	C81.283432,32.662304 81.904633,33.198135 82.692673,33.998737 
	C82.202881,33.751274 81.546234,33.239040 80.775917,32.426640 
z"/>
<path fill="#07020B" opacity="1.000000" stroke="none" 
	d="
M82.843315,34.445114 
	C83.337067,34.668499 83.953308,35.179356 84.730202,35.948692 
	C84.249168,35.715641 83.607491,35.224110 82.843315,34.445114 
z"/>
<path fill="#6A257A" opacity="1.000000" stroke="none" 
	d="
M9.238466,61.116875 
	C9.748732,60.966591 10.491385,60.938511 11.604678,60.934143 
	C11.140496,61.051598 10.305675,61.145336 9.238466,61.116875 
z"/>
<path fill="#6A257A" opacity="1.000000" stroke="none" 
	d="
M10.778673,69.016678 
	C10.518316,69.099785 10.083655,69.066811 9.326143,68.983932 
	C9.536984,68.922890 10.070677,68.911743 10.778673,69.016678 
z"/>
<path fill="#07020B" opacity="1.000000" stroke="none" 
	d="
M67.964615,14.326496 
	C68.249596,14.076341 68.760818,14.046110 69.657471,14.011318 
	C70.042900,14.006759 70.024940,14.496050 70.011902,14.740414 
	C69.396187,14.838657 68.793510,14.692538 67.964615,14.326496 
z"/>
<path fill="#07020B" opacity="1.000000" stroke="none" 
	d="
M37.352554,14.783527 
	C37.594353,14.562983 38.130539,14.398251 38.947128,14.194181 
	C38.700668,14.383010 38.173805,14.611175 37.352554,14.783527 
z"/>
<path fill="#722683" opacity="1.000000" stroke="none" 
	d="
M18.760860,39.793533 
	C19.032755,39.498135 19.645325,39.025517 20.638638,38.455452 
	C20.380100,38.777447 19.740820,39.196880 18.760860,39.793533 
z"/>
<path fill="#07020B" opacity="1.000000" stroke="none" 
	d="
M105.177887,31.850552 
	C106.616966,31.096134 108.353745,30.468212 110.436005,29.746704 
	C109.012856,30.427759 107.244225,31.202404 105.177887,31.850552 
z"/>
<path fill="#07020B" opacity="1.000000" stroke="none" 
	d="
M107.020981,63.832321 
	C106.532860,62.888657 106.257683,61.780449 106.058281,60.329689 
	C106.500679,61.214012 106.867294,62.440899 107.020981,63.832321 
z"/>
<path fill="#07020B" opacity="1.000000" stroke="none" 
	d="
M87.078880,22.164429 
	C87.423653,22.424145 87.745499,22.887007 88.139709,23.625504 
	C87.826706,23.389950 87.441330,22.878763 87.078880,22.164429 
z"/>
<path fill="#07020B" opacity="1.000000" stroke="none" 
	d="
M110.920166,29.635368 
	C111.177856,29.163305 111.706062,28.545052 112.524841,27.811018 
	C112.273834,28.293217 111.732262,28.891195 110.920166,29.635368 
z"/>
<path fill="#07020B" opacity="1.000000" stroke="none" 
	d="
M112.953583,27.658878 
	C113.200638,27.182438 113.713249,26.553354 114.514542,25.803396 
	C114.275192,26.290426 113.747169,26.898331 112.953583,27.658878 
z"/>
<path fill="#07020B" opacity="1.000000" stroke="none" 
	d="
M97.261993,31.250816 
	C97.604881,31.231413 98.229568,31.340799 99.093597,31.666534 
	C98.736557,31.715122 98.140182,31.547361 97.261993,31.250816 
z"/>
<path fill="#07020B" opacity="1.000000" stroke="none" 
	d="
M96.162231,30.497211 
	C96.314827,30.370838 96.530266,30.480070 96.763535,30.867554 
	C96.631752,30.926105 96.446320,30.788443 96.162231,30.497211 
z"/>
<path fill="#07020B" opacity="1.000000" stroke="none" 
	d="
M93.215973,29.213707 
	C93.336578,29.196835 93.676170,29.342745 94.200150,29.704086 
	C94.068008,29.738506 93.751480,29.557499 93.215973,29.213707 
z"/>
<path fill="#07020B" opacity="1.000000" stroke="none" 
	d="
M106.172554,67.256332 
	C106.241356,66.954315 106.375832,66.841736 106.727058,66.577133 
	C106.828369,66.741623 106.712936,67.058128 106.488037,67.598022 
	C106.378571,67.821411 106.238235,67.445770 106.172554,67.256332 
z"/>
<path fill="#07020B" opacity="1.000000" stroke="none" 
	d="
M86.658127,11.990515 
	C86.795815,12.354475 86.693398,12.718991 86.387527,13.290789 
	C86.141922,13.250239 86.099762,13.002408 85.997879,12.382182 
	C85.938148,12.009788 86.418007,11.991072 86.658127,11.990515 
z"/>
<path fill="#0A040E" opacity="1.000000" stroke="none" 
	d="
M102.784851,23.938877 
	C96.860138,23.078903 93.960106,19.865780 94.437279,15.148351 
	C94.854614,11.022470 98.510490,8.035326 103.024414,9.134887 
	C105.341087,9.699214 108.003830,11.754367 109.061859,13.862628 
	C110.495659,16.719683 109.909454,20.121616 106.734703,22.190901 
	C105.639442,22.904779 104.367599,23.347721 102.784851,23.938877 
z"/>
</svg>